G04 PROTEUS RS274X GERBER FILE*
%FSLAX45Y45*%
%MOMM*%
G01*
%ADD18C,0.203200*%
%ADD19C,0.127000*%
%ADD70C,0.063500*%
%TD.AperFunction*%
D18*
X+2208819Y+3576301D02*
X+2298621Y+3486499D01*
X+2208819Y+3486499D02*
X+2298621Y+3576301D01*
X+1954819Y+3576301D02*
X+2044621Y+3486499D01*
X+1954819Y+3486499D02*
X+2044621Y+3576301D01*
X+1410519Y+3572961D02*
X+1500321Y+3483159D01*
X+1410519Y+3483159D02*
X+1500321Y+3572961D01*
X+1156519Y+3572961D02*
X+1246321Y+3483159D01*
X+1156519Y+3483159D02*
X+1246321Y+3572961D01*
X+607879Y+3578041D02*
X+697681Y+3488239D01*
X+607879Y+3488239D02*
X+697681Y+3578041D01*
X+353879Y+3578041D02*
X+443681Y+3488239D01*
X+353879Y+3488239D02*
X+443681Y+3578041D01*
X+3650000Y+1983500D02*
X+3650000Y+1856500D01*
X+3586500Y+1920000D02*
X+3713500Y+1920000D01*
X+3396000Y+1983500D02*
X+3396000Y+1856500D01*
X+3332500Y+1920000D02*
X+3459500Y+1920000D01*
X+3142000Y+1983500D02*
X+3142000Y+1856500D01*
X+3078500Y+1920000D02*
X+3205500Y+1920000D01*
X+2888000Y+1983500D02*
X+2888000Y+1856500D01*
X+2824500Y+1920000D02*
X+2951500Y+1920000D01*
X+2634000Y+1983500D02*
X+2634000Y+1856500D01*
X+2570500Y+1920000D02*
X+2697500Y+1920000D01*
X+342000Y+429500D02*
X+342000Y+302500D01*
X+278500Y+366000D02*
X+405500Y+366000D01*
X+596000Y+429500D02*
X+596000Y+302500D01*
X+532500Y+366000D02*
X+659500Y+366000D01*
X+4914000Y+429500D02*
X+4914000Y+302500D01*
X+4850500Y+366000D02*
X+4977500Y+366000D01*
X+602000Y+1983500D02*
X+602000Y+1856500D01*
X+538500Y+1920000D02*
X+665500Y+1920000D01*
X+348000Y+1983500D02*
X+348000Y+1856500D01*
X+284500Y+1920000D02*
X+411500Y+1920000D01*
X+856000Y+1983500D02*
X+856000Y+1856500D01*
X+792500Y+1920000D02*
X+919500Y+1920000D01*
X+5168000Y+429500D02*
X+5168000Y+302500D01*
X+5104500Y+366000D02*
X+5231500Y+366000D01*
X+2754179Y+3326581D02*
X+2843981Y+3236779D01*
X+2754179Y+3236779D02*
X+2843981Y+3326581D01*
X+2754179Y+3072581D02*
X+2843981Y+2982779D01*
X+2754179Y+2982779D02*
X+2843981Y+3072581D01*
X+2754179Y+2818581D02*
X+2843981Y+2728779D01*
X+2754179Y+2728779D02*
X+2843981Y+2818581D01*
X+2754179Y+3580581D02*
X+2843981Y+3490779D01*
X+2754179Y+3490779D02*
X+2843981Y+3580581D01*
X+371659Y+2899861D02*
X+461461Y+2810059D01*
X+371659Y+2810059D02*
X+461461Y+2899861D01*
X+371659Y+2645861D02*
X+461461Y+2556059D01*
X+371659Y+2556059D02*
X+461461Y+2645861D01*
X+39839Y+41059D02*
X+5442459Y+41059D01*
X+5442459Y+3834219D01*
X+39839Y+3834219D01*
X+39839Y+41059D01*
D19*
X+27139Y-987641D02*
X+2671279Y-987641D01*
X+2671279Y-225641D01*
X+27139Y-225641D01*
X+27139Y-987641D01*
D70*
X+494501Y-225641D02*
X+494501Y-987641D01*
X+1307301Y-225641D02*
X+1307301Y-987641D01*
X+2140421Y-225641D02*
X+2140421Y-987641D01*
X+27139Y-498691D02*
X+2671279Y-498691D01*
X+27139Y-739991D02*
X+2671279Y-739991D01*
D19*
X+84289Y-389471D02*
X+99529Y-404711D01*
X+160489Y-404711D01*
X+175729Y-389471D01*
X+175729Y-374231D01*
X+160489Y-358991D01*
X+99529Y-358991D01*
X+84289Y-343751D01*
X+84289Y-328511D01*
X+99529Y-313271D01*
X+160489Y-313271D01*
X+175729Y-328511D01*
X+297649Y-313271D02*
X+206209Y-404711D01*
X+206209Y-313271D02*
X+251929Y-358991D01*
X+328129Y-404711D02*
X+328129Y-313271D01*
X+373849Y-358991D01*
X+419569Y-313271D01*
X+419569Y-404711D01*
X+551649Y-389471D02*
X+566889Y-404711D01*
X+627849Y-404711D01*
X+643089Y-389471D01*
X+643089Y-374231D01*
X+627849Y-358991D01*
X+566889Y-358991D01*
X+551649Y-343751D01*
X+551649Y-328511D01*
X+566889Y-313271D01*
X+627849Y-313271D01*
X+643089Y-328511D01*
X+688809Y-313271D02*
X+749769Y-313271D01*
X+719289Y-313271D02*
X+719289Y-404711D01*
X+688809Y-404711D02*
X+749769Y-404711D01*
X+795489Y-313271D02*
X+886929Y-313271D01*
X+795489Y-404711D01*
X+886929Y-404711D01*
X+1008849Y-404711D02*
X+917409Y-404711D01*
X+917409Y-313271D01*
X+1008849Y-313271D01*
X+917409Y-358991D02*
X+978369Y-358991D01*
X+1364449Y-404711D02*
X+1364449Y-313271D01*
X+1440649Y-313271D01*
X+1455889Y-328511D01*
X+1455889Y-343751D01*
X+1440649Y-358991D01*
X+1364449Y-358991D01*
X+1486369Y-313271D02*
X+1486369Y-404711D01*
X+1577809Y-404711D01*
X+1608289Y-404711D02*
X+1608289Y-343751D01*
X+1638769Y-313271D01*
X+1669249Y-313271D01*
X+1699729Y-343751D01*
X+1699729Y-404711D01*
X+1608289Y-374231D02*
X+1699729Y-374231D01*
X+1730209Y-313271D02*
X+1821649Y-313271D01*
X+1775929Y-313271D02*
X+1775929Y-404711D01*
X+1943569Y-404711D02*
X+1852129Y-404711D01*
X+1852129Y-313271D01*
X+1943569Y-313271D01*
X+1852129Y-358991D02*
X+1913089Y-358991D01*
X+1974049Y-404711D02*
X+1974049Y-313271D01*
X+2035009Y-313271D01*
X+2065489Y-343751D01*
X+2065489Y-374231D01*
X+2035009Y-404711D01*
X+1974049Y-404711D01*
X+2197569Y-343751D02*
X+2228049Y-313271D01*
X+2258529Y-313271D01*
X+2289009Y-343751D01*
X+2289009Y-374231D01*
X+2258529Y-404711D01*
X+2228049Y-404711D01*
X+2197569Y-374231D01*
X+2197569Y-343751D01*
X+2258529Y-374231D02*
X+2289009Y-404711D01*
X+2319489Y-313271D02*
X+2410929Y-313271D01*
X+2365209Y-313271D02*
X+2365209Y-404711D01*
X+2532849Y-313271D02*
X+2441409Y-404711D01*
X+2441409Y-313271D02*
X+2487129Y-358991D01*
D18*
X+273519Y-549491D02*
X+273519Y-676491D01*
X+210019Y-612991D02*
X+337019Y-612991D01*
D19*
X+570699Y-638391D02*
X+570699Y-587591D01*
X+583399Y-574891D01*
X+634199Y-574891D01*
X+646899Y-587591D01*
X+646899Y-638391D01*
X+634199Y-651091D01*
X+583399Y-651091D01*
X+570699Y-638391D01*
X+570699Y-651091D02*
X+646899Y-574891D01*
X+710399Y-638391D02*
X+723099Y-638391D01*
X+723099Y-651091D01*
X+710399Y-651091D01*
X+710399Y-638391D01*
X+850099Y-587591D02*
X+837399Y-574891D01*
X+799299Y-574891D01*
X+786599Y-587591D01*
X+786599Y-638391D01*
X+799299Y-651091D01*
X+837399Y-651091D01*
X+850099Y-638391D01*
X+850099Y-625691D01*
X+837399Y-612991D01*
X+786599Y-612991D01*
X+888199Y-587591D02*
X+900899Y-574891D01*
X+938999Y-574891D01*
X+951699Y-587591D01*
X+951699Y-600291D01*
X+938999Y-612991D01*
X+951699Y-625691D01*
X+951699Y-638391D01*
X+938999Y-651091D01*
X+900899Y-651091D01*
X+888199Y-638391D01*
X+913599Y-612991D02*
X+938999Y-612991D01*
X+1053299Y-574891D02*
X+989799Y-574891D01*
X+989799Y-600291D01*
X+1040599Y-600291D01*
X+1053299Y-612991D01*
X+1053299Y-638391D01*
X+1040599Y-651091D01*
X+1002499Y-651091D01*
X+989799Y-638391D01*
X+1078699Y-651091D02*
X+1078699Y-600291D01*
X+1078699Y-612991D02*
X+1091399Y-600291D01*
X+1116799Y-625691D01*
X+1142199Y-600291D01*
X+1154899Y-612991D01*
X+1154899Y-651091D01*
X+1180299Y-651091D02*
X+1180299Y-600291D01*
X+1180299Y-612991D02*
X+1192999Y-600291D01*
X+1218399Y-625691D01*
X+1243799Y-600291D01*
X+1256499Y-612991D01*
X+1256499Y-651091D01*
X+1472399Y-574891D02*
X+1396199Y-651091D01*
X+1396199Y-574891D02*
X+1434299Y-612991D01*
X+1573999Y-651091D02*
X+1497799Y-651091D01*
X+1497799Y-574891D01*
X+1573999Y-574891D01*
X+1497799Y-612991D02*
X+1548599Y-612991D01*
X+1599399Y-638391D02*
X+1612099Y-651091D01*
X+1662899Y-651091D01*
X+1675599Y-638391D01*
X+1675599Y-625691D01*
X+1662899Y-612991D01*
X+1612099Y-612991D01*
X+1599399Y-600291D01*
X+1599399Y-587591D01*
X+1612099Y-574891D01*
X+1662899Y-574891D01*
X+1675599Y-587591D01*
X+2267419Y-600291D02*
X+2292819Y-574891D01*
X+2292819Y-651091D01*
X+2356319Y-587591D02*
X+2369019Y-574891D01*
X+2407119Y-574891D01*
X+2419819Y-587591D01*
X+2419819Y-600291D01*
X+2407119Y-612991D01*
X+2369019Y-612991D01*
X+2356319Y-625691D01*
X+2356319Y-651091D01*
X+2419819Y-651091D01*
D18*
X+228618Y-809390D02*
X+318420Y-899192D01*
X+228618Y-899192D02*
X+318420Y-809390D01*
D19*
X+596099Y-841591D02*
X+621499Y-816191D01*
X+621499Y-892391D01*
X+710399Y-879691D02*
X+723099Y-879691D01*
X+723099Y-892391D01*
X+710399Y-892391D01*
X+710399Y-879691D01*
X+773899Y-879691D02*
X+773899Y-828891D01*
X+786599Y-816191D01*
X+837399Y-816191D01*
X+850099Y-828891D01*
X+850099Y-879691D01*
X+837399Y-892391D01*
X+786599Y-892391D01*
X+773899Y-879691D01*
X+773899Y-892391D02*
X+850099Y-816191D01*
X+900899Y-841591D02*
X+926299Y-816191D01*
X+926299Y-892391D01*
X+1053299Y-828891D02*
X+1040599Y-816191D01*
X+1002499Y-816191D01*
X+989799Y-828891D01*
X+989799Y-879691D01*
X+1002499Y-892391D01*
X+1040599Y-892391D01*
X+1053299Y-879691D01*
X+1053299Y-866991D01*
X+1040599Y-854291D01*
X+989799Y-854291D01*
X+1078699Y-892391D02*
X+1078699Y-841591D01*
X+1078699Y-854291D02*
X+1091399Y-841591D01*
X+1116799Y-866991D01*
X+1142199Y-841591D01*
X+1154899Y-854291D01*
X+1154899Y-892391D01*
X+1180299Y-892391D02*
X+1180299Y-841591D01*
X+1180299Y-854291D02*
X+1192999Y-841591D01*
X+1218399Y-866991D01*
X+1243799Y-841591D01*
X+1256499Y-854291D01*
X+1256499Y-892391D01*
X+1472399Y-816191D02*
X+1396199Y-892391D01*
X+1396199Y-816191D02*
X+1434299Y-854291D01*
X+1573999Y-892391D02*
X+1497799Y-892391D01*
X+1497799Y-816191D01*
X+1573999Y-816191D01*
X+1497799Y-854291D02*
X+1548599Y-854291D01*
X+1599399Y-879691D02*
X+1612099Y-892391D01*
X+1662899Y-892391D01*
X+1675599Y-879691D01*
X+1675599Y-866991D01*
X+1662899Y-854291D01*
X+1612099Y-854291D01*
X+1599399Y-841591D01*
X+1599399Y-828891D01*
X+1612099Y-816191D01*
X+1662899Y-816191D01*
X+1675599Y-828891D01*
X+2267419Y-841591D02*
X+2292819Y-816191D01*
X+2292819Y-892391D01*
X+2356319Y-828891D02*
X+2369019Y-816191D01*
X+2407119Y-816191D01*
X+2419819Y-828891D01*
X+2419819Y-841591D01*
X+2407119Y-854291D01*
X+2369019Y-854291D01*
X+2356319Y-866991D01*
X+2356319Y-892391D01*
X+2419819Y-892391D01*
M02*
