G04 PROTEUS RS274X GERBER FILE*
%FSLAX45Y45*%
%MOMM*%
G01*
%ADD10C,0.635000*%
%ADD11C,1.016000*%
%ADD12C,0.254000*%
%ADD13C,2.032000*%
%ADD14R,1.270000X1.016000*%
%AMPPAD005*
4,1,36,
-0.635000,-0.584200,
-0.635000,0.584200,
-0.628940,0.646520,
-0.611490,0.704160,
-0.583770,0.755980,
-0.546890,0.800890,
-0.501980,0.837760,
-0.450160,0.865480,
-0.392520,0.882930,
-0.330200,0.889000,
0.330200,0.889000,
0.392520,0.882930,
0.450160,0.865480,
0.501980,0.837760,
0.546890,0.800890,
0.583770,0.755980,
0.611490,0.704160,
0.628940,0.646520,
0.635000,0.584200,
0.635000,-0.584200,
0.628940,-0.646520,
0.611490,-0.704160,
0.583770,-0.755980,
0.546890,-0.800890,
0.501980,-0.837760,
0.450160,-0.865480,
0.392520,-0.882930,
0.330200,-0.889000,
-0.330200,-0.889000,
-0.392520,-0.882930,
-0.450160,-0.865480,
-0.501980,-0.837760,
-0.546890,-0.800890,
-0.583770,-0.755980,
-0.611490,-0.704160,
-0.628940,-0.646520,
-0.635000,-0.584200,
0*%
%ADD15PPAD005*%
%ADD16R,2.032000X2.032000*%
%ADD17R,2.108200X2.108200*%
%ADD18C,0.203200*%
%TD.AperFunction*%
G36*
X+398780Y+3533140D02*
X+448144Y+3521151D01*
X+475617Y+3634259D01*
X+374004Y+3577487D01*
X+398780Y+3533140D01*
G37*
G36*
X+398780Y+3533140D02*
X+351490Y+3551693D01*
X+308978Y+3443338D01*
X+417333Y+3485850D01*
X+398780Y+3533140D01*
G37*
G36*
X+3650000Y+1920000D02*
X+3680345Y+1929338D01*
X+3650000Y+2027950D01*
X+3619655Y+1929338D01*
X+3650000Y+1920000D01*
G37*
G36*
X+3396000Y+1920000D02*
X+3426345Y+1929338D01*
X+3396000Y+2027950D01*
X+3365655Y+1929338D01*
X+3396000Y+1920000D01*
G37*
G36*
X+3142000Y+1920000D02*
X+3111655Y+1910662D01*
X+3142000Y+1812050D01*
X+3172345Y+1910662D01*
X+3142000Y+1920000D01*
G37*
G36*
X+3142000Y+1920000D02*
X+3172345Y+1929338D01*
X+3142000Y+2027950D01*
X+3111655Y+1929338D01*
X+3142000Y+1920000D01*
G37*
G36*
X+2888000Y+1920000D02*
X+2918345Y+1929338D01*
X+2888000Y+2027950D01*
X+2857655Y+1929338D01*
X+2888000Y+1920000D01*
G37*
G36*
X+2888000Y+1920000D02*
X+2857833Y+1910102D01*
X+2890000Y+1812069D01*
X+2918513Y+1911226D01*
X+2888000Y+1920000D01*
G37*
G36*
X+2799080Y+3027680D02*
X+2797891Y+2957841D01*
X+2926136Y+2955656D01*
X+2858393Y+3064571D01*
X+2799080Y+3027680D01*
G37*
G36*
X+2799080Y+3027680D02*
X+2797891Y+2957841D01*
X+2926136Y+2955656D01*
X+2858393Y+3064571D01*
X+2799080Y+3027680D01*
G37*
G36*
X+2799080Y+2773680D02*
X+2826735Y+2709539D01*
X+2944518Y+2760322D01*
X+2837957Y+2831710D01*
X+2799080Y+2773680D01*
G37*
G36*
X+2799080Y+2773680D02*
X+2826735Y+2709539D01*
X+2944518Y+2760322D01*
X+2837957Y+2831710D01*
X+2799080Y+2773680D01*
G37*
G36*
X+416560Y+2854960D02*
X+449966Y+2793617D01*
X+562610Y+2854960D01*
X+449966Y+2916303D01*
X+416560Y+2854960D01*
G37*
G36*
X+2253720Y+3531400D02*
X+2192377Y+3497994D01*
X+2253720Y+3385350D01*
X+2315063Y+3497994D01*
X+2253720Y+3531400D01*
G37*
G36*
X+1999720Y+3531400D02*
X+2046278Y+3551720D01*
X+1999720Y+3658400D01*
X+1953162Y+3551720D01*
X+1999720Y+3531400D01*
G37*
G36*
X+1455420Y+3528060D02*
X+1435666Y+3461062D01*
X+1558692Y+3424788D01*
X+1522418Y+3547814D01*
X+1455420Y+3528060D01*
G37*
G36*
X+1201420Y+3528060D02*
X+1247978Y+3548380D01*
X+1201420Y+3655060D01*
X+1154862Y+3548380D01*
X+1201420Y+3528060D01*
G37*
G36*
X+652780Y+3533140D02*
X+633026Y+3466142D01*
X+756052Y+3429868D01*
X+719778Y+3552894D01*
X+652780Y+3533140D01*
G37*
G36*
X+2634000Y+1920000D02*
X+2603330Y+1911793D01*
X+2630000Y+1812125D01*
X+2663978Y+1909544D01*
X+2634000Y+1920000D01*
G37*
G36*
X+2634000Y+1920000D02*
X+2664345Y+1929338D01*
X+2634000Y+2027950D01*
X+2603655Y+1929338D01*
X+2634000Y+1920000D01*
G37*
G36*
X+856000Y+1920000D02*
X+868678Y+1920733D01*
X+863600Y+2008574D01*
X+843632Y+1922882D01*
X+856000Y+1920000D01*
G37*
G36*
X+2799080Y+3535680D02*
X+2817633Y+3582970D01*
X+2709278Y+3625482D01*
X+2751790Y+3517127D01*
X+2799080Y+3535680D01*
G37*
G36*
X+406016Y+3726300D02*
X+355791Y+3698239D01*
X+330394Y+3698239D01*
X+233681Y+3601526D01*
X+233681Y+3564365D01*
X+211288Y+3507290D01*
X+113498Y+3409500D01*
X+113498Y+3760560D01*
X+440276Y+3760560D01*
X+406016Y+3726300D01*
G37*
G36*
X+5368800Y+114718D02*
X+113498Y+114718D01*
X+113498Y+2473102D01*
X+297942Y+2288658D01*
X+529248Y+2288658D01*
X+541831Y+2301241D01*
X+694691Y+2301241D01*
X+694691Y+2246631D01*
X+749301Y+2246631D01*
X+749301Y+2072399D01*
X+729001Y+2072399D01*
X+729001Y+1767601D01*
X+982999Y+1767601D01*
X+982999Y+2072399D01*
X+977899Y+2072399D01*
X+977899Y+2246631D01*
X+1032509Y+2246631D01*
X+1032509Y+2584449D01*
X+694691Y+2584449D01*
X+694691Y+2529839D01*
X+447145Y+2529839D01*
X+434562Y+2517256D01*
X+392628Y+2517256D01*
X+327659Y+2582225D01*
X+327659Y+2710376D01*
X+348174Y+2689861D01*
X+484946Y+2689861D01*
X+516453Y+2721368D01*
X+586862Y+2759711D01*
X+694691Y+2759711D01*
X+694691Y+2696631D01*
X+1032509Y+2696631D01*
X+1032509Y+3034449D01*
X+694691Y+3034449D01*
X+694691Y+2950209D01*
X+586862Y+2950209D01*
X+516453Y+2988552D01*
X+484946Y+3020059D01*
X+348174Y+3020059D01*
X+327659Y+2999544D01*
X+327659Y+3300377D01*
X+372930Y+3345648D01*
X+430005Y+3368041D01*
X+467166Y+3368041D01*
X+525780Y+3426655D01*
X+584394Y+3368041D01*
X+628952Y+3368041D01*
X+705851Y+3345367D01*
X+913047Y+3138171D01*
X+1477127Y+3138171D01*
X+2538751Y+2076547D01*
X+2538751Y+2072399D01*
X+2507001Y+2072399D01*
X+2507001Y+1767601D01*
X+2534751Y+1767601D01*
X+2534751Y+1724299D01*
X+2503001Y+1724299D01*
X+2503001Y+1495701D01*
X+2756999Y+1495701D01*
X+2756999Y+1724299D01*
X+2725249Y+1724299D01*
X+2725249Y+1767601D01*
X+2760999Y+1767601D01*
X+2760999Y+2072399D01*
X+2729249Y+2072399D01*
X+2729249Y+2155453D01*
X+2550519Y+2334183D01*
X+2744214Y+2334183D01*
X+2792751Y+2285646D01*
X+2792751Y+2072399D01*
X+2761001Y+2072399D01*
X+2761001Y+1767601D01*
X+2794751Y+1767601D01*
X+2794751Y+1724299D01*
X+2763001Y+1724299D01*
X+2763001Y+1495701D01*
X+3266999Y+1495701D01*
X+3266999Y+1724299D01*
X+3237249Y+1724299D01*
X+3237249Y+1767601D01*
X+3268999Y+1767601D01*
X+3268999Y+2072399D01*
X+3237249Y+2072399D01*
X+3237249Y+2332889D01*
X+3300751Y+2269387D01*
X+3300751Y+2072399D01*
X+3269001Y+2072399D01*
X+3269001Y+1767601D01*
X+3522999Y+1767601D01*
X+3522999Y+2072399D01*
X+3491249Y+2072399D01*
X+3491249Y+2255841D01*
X+3554751Y+2192339D01*
X+3554751Y+2072399D01*
X+3523001Y+2072399D01*
X+3523001Y+1767601D01*
X+3776999Y+1767601D01*
X+3776999Y+2072399D01*
X+3745249Y+2072399D01*
X+3745249Y+2271245D01*
X+3001231Y+3015263D01*
X+2964179Y+3074834D01*
X+2964179Y+3192779D01*
X+2633981Y+3192779D01*
X+2633981Y+2729370D01*
X+2348969Y+3014382D01*
X+2348969Y+3361098D01*
X+2387312Y+3431507D01*
X+2418819Y+3463014D01*
X+2418819Y+3599786D01*
X+2401691Y+3616914D01*
X+2556204Y+3616914D01*
X+2611588Y+3561530D01*
X+2633981Y+3504455D01*
X+2633981Y+3370581D01*
X+2964179Y+3370581D01*
X+2964179Y+3700779D01*
X+2830305Y+3700779D01*
X+2773230Y+3723172D01*
X+2735842Y+3760560D01*
X+5368800Y+3760560D01*
X+5368800Y+114718D01*
G37*
%LPC*%
G36*
X+3152700Y+1391379D02*
X+3152700Y+1401901D01*
X+3145261Y+1409340D01*
X+3134739Y+1409340D01*
X+3127300Y+1401901D01*
X+3127300Y+1391379D01*
X+3134739Y+1383940D01*
X+3145261Y+1383940D01*
X+3152700Y+1391379D01*
G37*
G36*
X+2902700Y+1391379D02*
X+2902700Y+1401901D01*
X+2895261Y+1409340D01*
X+2884739Y+1409340D01*
X+2877300Y+1401901D01*
X+2877300Y+1391379D01*
X+2884739Y+1383940D01*
X+2895261Y+1383940D01*
X+2902700Y+1391379D01*
G37*
G36*
X+2642700Y+1391379D02*
X+2642700Y+1401901D01*
X+2635261Y+1409340D01*
X+2624739Y+1409340D01*
X+2617300Y+1401901D01*
X+2617300Y+1391379D01*
X+2624739Y+1383940D01*
X+2635261Y+1383940D01*
X+2642700Y+1391379D01*
G37*
G36*
X+468999Y+213601D02*
X+468999Y+518399D01*
X+215001Y+518399D01*
X+215001Y+213601D01*
X+468999Y+213601D01*
G37*
G36*
X+722999Y+213601D02*
X+722999Y+518399D01*
X+469001Y+518399D01*
X+469001Y+213601D01*
X+722999Y+213601D01*
G37*
G36*
X+4958450Y+347588D02*
X+4958450Y+384412D01*
X+4932412Y+410450D01*
X+4895588Y+410450D01*
X+4869550Y+384412D01*
X+4869550Y+347588D01*
X+4895588Y+321550D01*
X+4932412Y+321550D01*
X+4958450Y+347588D01*
G37*
G36*
X+646450Y+1901588D02*
X+646450Y+1938412D01*
X+620412Y+1964450D01*
X+583588Y+1964450D01*
X+557550Y+1938412D01*
X+557550Y+1901588D01*
X+583588Y+1875550D01*
X+620412Y+1875550D01*
X+646450Y+1901588D01*
G37*
G36*
X+392450Y+1901588D02*
X+392450Y+1938412D01*
X+366412Y+1964450D01*
X+329588Y+1964450D01*
X+303550Y+1938412D01*
X+303550Y+1901588D01*
X+329588Y+1875550D01*
X+366412Y+1875550D01*
X+392450Y+1901588D01*
G37*
G36*
X+5294999Y+213601D02*
X+5294999Y+518399D01*
X+5041001Y+518399D01*
X+5041001Y+213601D01*
X+5294999Y+213601D01*
G37*
G36*
X+2735580Y+3307983D02*
X+2735580Y+3255377D01*
X+2772777Y+3218180D01*
X+2825383Y+3218180D01*
X+2862580Y+3255377D01*
X+2862580Y+3307983D01*
X+2825383Y+3345180D01*
X+2772777Y+3345180D01*
X+2735580Y+3307983D01*
G37*
G36*
X+353060Y+2627263D02*
X+353060Y+2574657D01*
X+390257Y+2537460D01*
X+442863Y+2537460D01*
X+480060Y+2574657D01*
X+480060Y+2627263D01*
X+442863Y+2664460D01*
X+390257Y+2664460D01*
X+353060Y+2627263D01*
G37*
%LPD*%
G36*
X+1036321Y+3596446D02*
X+1036321Y+3459674D01*
X+1133034Y+3362961D01*
X+1269806Y+3362961D01*
X+1328420Y+3421575D01*
X+1387034Y+3362961D01*
X+1431592Y+3362961D01*
X+1508491Y+3340287D01*
X+1520109Y+3328669D01*
X+991953Y+3328669D01*
X+840553Y+3480069D01*
X+817879Y+3556968D01*
X+817879Y+3601526D01*
X+802491Y+3616914D01*
X+1056789Y+3616914D01*
X+1036321Y+3596446D01*
G37*
G36*
X+1834621Y+3599786D02*
X+1834621Y+3463014D01*
X+1931334Y+3366301D01*
X+2068106Y+3366301D01*
X+2124776Y+3422971D01*
X+2158471Y+3361098D01*
X+2158471Y+2959711D01*
X+1643193Y+3474989D01*
X+1620519Y+3551888D01*
X+1620519Y+3596446D01*
X+1600051Y+3616914D01*
X+1851749Y+3616914D01*
X+1834621Y+3599786D01*
G37*
G36*
X+3046751Y+2270094D02*
X+3046751Y+2072399D01*
X+3015001Y+2072399D01*
X+3015001Y+1767601D01*
X+3046751Y+1767601D01*
X+3046751Y+1724299D01*
X+2985249Y+1724299D01*
X+2985249Y+1767601D01*
X+3014999Y+1767601D01*
X+3014999Y+2072399D01*
X+2983249Y+2072399D01*
X+2983249Y+2333596D01*
X+3046751Y+2270094D01*
G37*
D10*
X+2630000Y+1610000D02*
X+2630000Y+1916000D01*
X+2634000Y+1920000D01*
X+2890000Y+1610000D02*
X+2890000Y+1918000D01*
X+2888000Y+1920000D01*
X+3140000Y+1610000D02*
X+3142000Y+1612000D01*
X+3142000Y+1920000D01*
X+416560Y+2854960D02*
X+853020Y+2854960D01*
X+863600Y+2865540D01*
D11*
X+863600Y+2415540D02*
X+863600Y+1927600D01*
X+856000Y+1920000D01*
X+863600Y+2415540D02*
X+494488Y+2415540D01*
X+481905Y+2402957D01*
X+345285Y+2402957D01*
X+213360Y+2534882D01*
X+213360Y+3347720D01*
X+398780Y+3533140D01*
D10*
X+2799080Y+3027680D02*
X+2854112Y+3027680D01*
X+3650000Y+2231792D01*
X+3650000Y+1920000D01*
X+2799080Y+2773680D02*
X+2931160Y+2773680D01*
X+3396000Y+2308840D01*
X+3396000Y+1920000D01*
X+2888000Y+1920000D02*
X+2888000Y+2325099D01*
X+2783667Y+2429432D01*
X+2554048Y+2429432D01*
X+1455420Y+3528060D01*
D11*
X+1201420Y+3528060D02*
X+1201420Y+3716889D01*
X+1187096Y+3731213D01*
X+398780Y+3533140D02*
X+398780Y+3557422D01*
X+572571Y+3731213D01*
X+1187096Y+3731213D01*
X+1999720Y+3531400D02*
X+1999720Y+3724333D01*
X+2006600Y+3731213D01*
X+1187096Y+3731213D02*
X+2006600Y+3731213D01*
X+2603547Y+3731213D01*
X+2799080Y+3535680D01*
D10*
X+2253720Y+3531400D02*
X+2253720Y+2974929D01*
X+2668649Y+2560000D01*
X+2891547Y+2560000D01*
X+3142000Y+2309547D01*
X+3142000Y+1920000D01*
X+652780Y+3533140D02*
X+952500Y+3233420D01*
X+1516580Y+3233420D01*
X+2634000Y+2116000D01*
X+2634000Y+1920000D01*
D11*
X+398780Y+3533140D02*
X+448144Y+3521151D01*
X+475617Y+3634259D01*
X+374004Y+3577487D01*
X+398780Y+3533140D01*
X+351490Y+3551693D01*
X+308978Y+3443338D01*
X+417333Y+3485850D01*
X+398780Y+3533140D01*
D10*
X+3650000Y+1920000D02*
X+3680345Y+1929338D01*
X+3650000Y+2027950D01*
X+3619655Y+1929338D01*
X+3650000Y+1920000D01*
X+3396000Y+1920000D02*
X+3426345Y+1929338D01*
X+3396000Y+2027950D01*
X+3365655Y+1929338D01*
X+3396000Y+1920000D01*
X+3142000Y+1920000D02*
X+3111655Y+1910662D01*
X+3142000Y+1812050D01*
X+3172345Y+1910662D01*
X+3142000Y+1920000D01*
X+3172345Y+1929338D01*
X+3142000Y+2027950D01*
X+3111655Y+1929338D01*
X+3142000Y+1920000D01*
X+2888000Y+1920000D02*
X+2918345Y+1929338D01*
X+2888000Y+2027950D01*
X+2857655Y+1929338D01*
X+2888000Y+1920000D01*
X+2857833Y+1910102D01*
X+2890000Y+1812069D01*
X+2918513Y+1911226D01*
X+2888000Y+1920000D01*
X+2799080Y+3027680D02*
X+2797891Y+2957841D01*
X+2926136Y+2955656D01*
X+2858393Y+3064571D01*
X+2799080Y+3027680D01*
X+2799080Y+2773680D02*
X+2826735Y+2709539D01*
X+2944518Y+2760322D01*
X+2837957Y+2831710D01*
X+2799080Y+2773680D01*
X+416560Y+2854960D02*
X+449966Y+2793617D01*
X+562610Y+2854960D01*
X+449966Y+2916303D01*
X+416560Y+2854960D01*
X+2253720Y+3531400D02*
X+2192377Y+3497994D01*
X+2253720Y+3385350D01*
X+2315063Y+3497994D01*
X+2253720Y+3531400D01*
D11*
X+1999720Y+3531400D02*
X+2046278Y+3551720D01*
X+1999720Y+3658400D01*
X+1953162Y+3551720D01*
X+1999720Y+3531400D01*
D10*
X+1455420Y+3528060D02*
X+1435666Y+3461062D01*
X+1558692Y+3424788D01*
X+1522418Y+3547814D01*
X+1455420Y+3528060D01*
D11*
X+1201420Y+3528060D02*
X+1247978Y+3548380D01*
X+1201420Y+3655060D01*
X+1154862Y+3548380D01*
X+1201420Y+3528060D01*
D10*
X+652780Y+3533140D02*
X+633026Y+3466142D01*
X+756052Y+3429868D01*
X+719778Y+3552894D01*
X+652780Y+3533140D01*
X+2634000Y+1920000D02*
X+2603330Y+1911793D01*
X+2630000Y+1812125D01*
X+2663978Y+1909544D01*
X+2634000Y+1920000D01*
X+2664345Y+1929338D01*
X+2634000Y+2027950D01*
X+2603655Y+1929338D01*
X+2634000Y+1920000D01*
D11*
X+856000Y+1920000D02*
X+868678Y+1920733D01*
X+863600Y+2008574D01*
X+843632Y+1922882D01*
X+856000Y+1920000D01*
D10*
X+2799080Y+3027680D02*
X+2797891Y+2957841D01*
X+2926136Y+2955656D01*
X+2858393Y+3064571D01*
X+2799080Y+3027680D01*
X+2799080Y+2773680D02*
X+2826735Y+2709539D01*
X+2944518Y+2760322D01*
X+2837957Y+2831710D01*
X+2799080Y+2773680D01*
D11*
X+2799080Y+3535680D02*
X+2817633Y+3582970D01*
X+2709278Y+3625482D01*
X+2751790Y+3517127D01*
X+2799080Y+3535680D01*
D12*
X+406016Y+3726300D02*
X+355791Y+3698239D01*
X+330394Y+3698239D01*
X+233681Y+3601526D01*
X+233681Y+3564365D01*
X+211288Y+3507290D01*
X+113498Y+3409500D01*
X+113498Y+3760560D01*
X+440276Y+3760560D01*
X+406016Y+3726300D01*
X+5368800Y+114718D02*
X+113498Y+114718D01*
X+113498Y+2473102D01*
X+297942Y+2288658D01*
X+529248Y+2288658D01*
X+541831Y+2301241D01*
X+694691Y+2301241D01*
X+694691Y+2246631D01*
X+749301Y+2246631D01*
X+749301Y+2072399D01*
X+729001Y+2072399D01*
X+729001Y+1767601D01*
X+982999Y+1767601D01*
X+982999Y+2072399D01*
X+977899Y+2072399D01*
X+977899Y+2246631D01*
X+1032509Y+2246631D01*
X+1032509Y+2584449D01*
X+694691Y+2584449D01*
X+694691Y+2529839D01*
X+447145Y+2529839D01*
X+434562Y+2517256D01*
X+392628Y+2517256D01*
X+327659Y+2582225D01*
X+327659Y+2710376D01*
X+348174Y+2689861D01*
X+484946Y+2689861D01*
X+516453Y+2721368D01*
X+586862Y+2759711D01*
X+694691Y+2759711D01*
X+694691Y+2696631D01*
X+1032509Y+2696631D01*
X+1032509Y+3034449D01*
X+694691Y+3034449D01*
X+694691Y+2950209D01*
X+586862Y+2950209D01*
X+516453Y+2988552D01*
X+484946Y+3020059D01*
X+348174Y+3020059D01*
X+327659Y+2999544D01*
X+327659Y+3300377D01*
X+372930Y+3345648D01*
X+430005Y+3368041D01*
X+467166Y+3368041D01*
X+525780Y+3426655D01*
X+584394Y+3368041D01*
X+628952Y+3368041D01*
X+705851Y+3345367D01*
X+913047Y+3138171D01*
X+1477127Y+3138171D01*
X+2538751Y+2076547D01*
X+2538751Y+2072399D01*
X+2507001Y+2072399D01*
X+2507001Y+1767601D01*
X+2534751Y+1767601D01*
X+2534751Y+1724299D01*
X+2503001Y+1724299D01*
X+2503001Y+1495701D01*
X+2756999Y+1495701D01*
X+2756999Y+1724299D01*
X+2725249Y+1724299D01*
X+2725249Y+1767601D01*
X+2760999Y+1767601D01*
X+2760999Y+2072399D01*
X+2729249Y+2072399D01*
X+2729249Y+2155453D01*
X+2550519Y+2334183D01*
X+2744214Y+2334183D01*
X+2792751Y+2285646D01*
X+2792751Y+2072399D01*
X+2761001Y+2072399D01*
X+2761001Y+1767601D01*
X+2794751Y+1767601D01*
X+2794751Y+1724299D01*
X+2763001Y+1724299D01*
X+2763001Y+1495701D01*
X+3266999Y+1495701D01*
X+3266999Y+1724299D01*
X+3237249Y+1724299D01*
X+3237249Y+1767601D01*
X+3268999Y+1767601D01*
X+3268999Y+2072399D01*
X+3237249Y+2072399D01*
X+3237249Y+2332889D01*
X+3300751Y+2269387D01*
X+3300751Y+2072399D01*
X+3269001Y+2072399D01*
X+3269001Y+1767601D01*
X+3522999Y+1767601D01*
X+3522999Y+2072399D01*
X+3491249Y+2072399D01*
X+3491249Y+2255841D01*
X+3554751Y+2192339D01*
X+3554751Y+2072399D01*
X+3523001Y+2072399D01*
X+3523001Y+1767601D01*
X+3776999Y+1767601D01*
X+3776999Y+2072399D01*
X+3745249Y+2072399D01*
X+3745249Y+2271245D01*
X+3001231Y+3015263D01*
X+2964179Y+3074834D01*
X+2964179Y+3192779D01*
X+2633981Y+3192779D01*
X+2633981Y+2729370D01*
X+2348969Y+3014382D01*
X+2348969Y+3361098D01*
X+2387312Y+3431507D01*
X+2418819Y+3463014D01*
X+2418819Y+3599786D01*
X+2401691Y+3616914D01*
X+2556204Y+3616914D01*
X+2611588Y+3561530D01*
X+2633981Y+3504455D01*
X+2633981Y+3370581D01*
X+2964179Y+3370581D01*
X+2964179Y+3700779D01*
X+2830305Y+3700779D01*
X+2773230Y+3723172D01*
X+2735842Y+3760560D01*
X+5368800Y+3760560D01*
X+5368800Y+114718D01*
X+3152700Y+1391379D02*
X+3152700Y+1401901D01*
X+3145261Y+1409340D01*
X+3134739Y+1409340D01*
X+3127300Y+1401901D01*
X+3127300Y+1391379D01*
X+3134739Y+1383940D01*
X+3145261Y+1383940D01*
X+3152700Y+1391379D01*
X+2902700Y+1391379D02*
X+2902700Y+1401901D01*
X+2895261Y+1409340D01*
X+2884739Y+1409340D01*
X+2877300Y+1401901D01*
X+2877300Y+1391379D01*
X+2884739Y+1383940D01*
X+2895261Y+1383940D01*
X+2902700Y+1391379D01*
X+2642700Y+1391379D02*
X+2642700Y+1401901D01*
X+2635261Y+1409340D01*
X+2624739Y+1409340D01*
X+2617300Y+1401901D01*
X+2617300Y+1391379D01*
X+2624739Y+1383940D01*
X+2635261Y+1383940D01*
X+2642700Y+1391379D01*
X+468999Y+213601D02*
X+468999Y+518399D01*
X+215001Y+518399D01*
X+215001Y+213601D01*
X+468999Y+213601D01*
X+722999Y+213601D02*
X+722999Y+518399D01*
X+469001Y+518399D01*
X+469001Y+213601D01*
X+722999Y+213601D01*
X+4958450Y+347588D02*
X+4958450Y+384412D01*
X+4932412Y+410450D01*
X+4895588Y+410450D01*
X+4869550Y+384412D01*
X+4869550Y+347588D01*
X+4895588Y+321550D01*
X+4932412Y+321550D01*
X+4958450Y+347588D01*
X+646450Y+1901588D02*
X+646450Y+1938412D01*
X+620412Y+1964450D01*
X+583588Y+1964450D01*
X+557550Y+1938412D01*
X+557550Y+1901588D01*
X+583588Y+1875550D01*
X+620412Y+1875550D01*
X+646450Y+1901588D01*
X+392450Y+1901588D02*
X+392450Y+1938412D01*
X+366412Y+1964450D01*
X+329588Y+1964450D01*
X+303550Y+1938412D01*
X+303550Y+1901588D01*
X+329588Y+1875550D01*
X+366412Y+1875550D01*
X+392450Y+1901588D01*
X+5294999Y+213601D02*
X+5294999Y+518399D01*
X+5041001Y+518399D01*
X+5041001Y+213601D01*
X+5294999Y+213601D01*
X+2735580Y+3307983D02*
X+2735580Y+3255377D01*
X+2772777Y+3218180D01*
X+2825383Y+3218180D01*
X+2862580Y+3255377D01*
X+2862580Y+3307983D01*
X+2825383Y+3345180D01*
X+2772777Y+3345180D01*
X+2735580Y+3307983D01*
X+353060Y+2627263D02*
X+353060Y+2574657D01*
X+390257Y+2537460D01*
X+442863Y+2537460D01*
X+480060Y+2574657D01*
X+480060Y+2627263D01*
X+442863Y+2664460D01*
X+390257Y+2664460D01*
X+353060Y+2627263D01*
X+1036321Y+3596446D02*
X+1036321Y+3459674D01*
X+1133034Y+3362961D01*
X+1269806Y+3362961D01*
X+1328420Y+3421575D01*
X+1387034Y+3362961D01*
X+1431592Y+3362961D01*
X+1508491Y+3340287D01*
X+1520109Y+3328669D01*
X+991953Y+3328669D01*
X+840553Y+3480069D01*
X+817879Y+3556968D01*
X+817879Y+3601526D01*
X+802491Y+3616914D01*
X+1056789Y+3616914D01*
X+1036321Y+3596446D01*
X+1834621Y+3599786D02*
X+1834621Y+3463014D01*
X+1931334Y+3366301D01*
X+2068106Y+3366301D01*
X+2124776Y+3422971D01*
X+2158471Y+3361098D01*
X+2158471Y+2959711D01*
X+1643193Y+3474989D01*
X+1620519Y+3551888D01*
X+1620519Y+3596446D01*
X+1600051Y+3616914D01*
X+1851749Y+3616914D01*
X+1834621Y+3599786D01*
X+3046751Y+2270094D02*
X+3046751Y+2072399D01*
X+3015001Y+2072399D01*
X+3015001Y+1767601D01*
X+3046751Y+1767601D01*
X+3046751Y+1724299D01*
X+2985249Y+1724299D01*
X+2985249Y+1767601D01*
X+3014999Y+1767601D01*
X+3014999Y+2072399D01*
X+2983249Y+2072399D01*
X+2983249Y+2333596D01*
X+3046751Y+2270094D01*
X+3140000Y+1383940D02*
X+3140000Y+1396640D01*
X+3140000Y+1409340D02*
X+3140000Y+1396640D01*
X+3152700Y+1396640D02*
X+3140000Y+1396640D01*
X+3127300Y+1396640D02*
X+3140000Y+1396640D01*
X+2890000Y+1383940D02*
X+2890000Y+1396640D01*
X+2890000Y+1409340D02*
X+2890000Y+1396640D01*
X+2902700Y+1396640D02*
X+2890000Y+1396640D01*
X+2877300Y+1396640D02*
X+2890000Y+1396640D01*
X+2630000Y+1383940D02*
X+2630000Y+1396640D01*
X+2630000Y+1409340D02*
X+2630000Y+1396640D01*
X+2642700Y+1396640D02*
X+2630000Y+1396640D01*
X+2617300Y+1396640D02*
X+2630000Y+1396640D01*
X+4914000Y+321550D02*
X+4914000Y+366000D01*
X+4914000Y+410450D02*
X+4914000Y+366000D01*
X+4958450Y+366000D02*
X+4914000Y+366000D01*
X+4869550Y+366000D02*
X+4914000Y+366000D01*
X+602000Y+1875550D02*
X+602000Y+1920000D01*
X+602000Y+1964450D02*
X+602000Y+1920000D01*
X+646450Y+1920000D02*
X+602000Y+1920000D01*
X+557550Y+1920000D02*
X+602000Y+1920000D01*
X+348000Y+1875550D02*
X+348000Y+1920000D01*
X+348000Y+1964450D02*
X+348000Y+1920000D01*
X+392450Y+1920000D02*
X+348000Y+1920000D01*
X+303550Y+1920000D02*
X+348000Y+1920000D01*
X+2799080Y+3345180D02*
X+2799080Y+3281680D01*
X+2799080Y+3218180D02*
X+2799080Y+3281680D01*
X+2735580Y+3281680D02*
X+2799080Y+3281680D01*
X+2862580Y+3281680D02*
X+2799080Y+3281680D01*
X+416560Y+2664460D02*
X+416560Y+2600960D01*
X+416560Y+2537460D02*
X+416560Y+2600960D01*
X+353060Y+2600960D02*
X+416560Y+2600960D01*
X+480060Y+2600960D02*
X+416560Y+2600960D01*
D13*
X+2253720Y+3531400D03*
X+1999720Y+3531400D03*
X+1455420Y+3528060D03*
X+1201420Y+3528060D03*
X+652780Y+3533140D03*
X+398780Y+3533140D03*
D14*
X+3140000Y+1610000D03*
X+3140000Y+1396640D03*
X+2890000Y+1610000D03*
X+2890000Y+1396640D03*
X+2630000Y+1610000D03*
X+2630000Y+1396640D03*
D15*
X+3650000Y+1920000D03*
X+3396000Y+1920000D03*
X+3142000Y+1920000D03*
X+2888000Y+1920000D03*
X+2634000Y+1920000D03*
X+342000Y+366000D03*
X+596000Y+366000D03*
X+4914000Y+366000D03*
X+602000Y+1920000D03*
X+348000Y+1920000D03*
X+856000Y+1920000D03*
X+5168000Y+366000D03*
D16*
X+2799080Y+3281680D03*
X+2799080Y+3027680D03*
X+2799080Y+2773680D03*
X+2799080Y+3535680D03*
D13*
X+416560Y+2854960D03*
X+416560Y+2600960D03*
D17*
X+863600Y+2865540D03*
X+863600Y+2415540D03*
D18*
X+39839Y+41059D02*
X+5442459Y+41059D01*
X+5442459Y+3834219D01*
X+39839Y+3834219D01*
X+39839Y+41059D01*
M02*
