M48
METRIC,TZ
T01C1.0160
T02C0.6350
%
T01
X+22537Y+35314
X+19997Y+35314
X+14554Y+35281
X+12014Y+35281
X+6528Y+35331
X+3988Y+35331
X+27991Y+32817
X+27991Y+30277
X+27991Y+27737
X+27991Y+35357
X+4166Y+28550
X+4166Y+26010
T02
X+36500Y+19200
X+33960Y+19200
X+31420Y+19200
X+28880Y+19200
X+26340Y+19200
X+3420Y+3660
X+5960Y+3660
X+49140Y+3660
X+6020Y+19200
X+3480Y+19200
X+8560Y+19200
X+51680Y+3660
M30
