G04 PROTEUS RS274X GERBER FILE*
%FSLAX45Y45*%
%MOMM*%
G01*
%ADD10C,1.016000*%
%ADD11C,0.635000*%
%ADD12C,0.254000*%
%ADD13R,2.032000X2.032000*%
%ADD14C,2.032000*%
%ADD15R,1.270000X1.016000*%
%AMPPAD006*
4,1,36,
-0.635000,-0.584200,
-0.635000,0.584200,
-0.628940,0.646520,
-0.611490,0.704160,
-0.583770,0.755980,
-0.546890,0.800890,
-0.501980,0.837760,
-0.450160,0.865480,
-0.392520,0.882930,
-0.330200,0.889000,
0.330200,0.889000,
0.392520,0.882930,
0.450160,0.865480,
0.501980,0.837760,
0.546890,0.800890,
0.583770,0.755980,
0.611490,0.704160,
0.628940,0.646520,
0.635000,0.584200,
0.635000,-0.584200,
0.628940,-0.646520,
0.611490,-0.704160,
0.583770,-0.755980,
0.546890,-0.800890,
0.501980,-0.837760,
0.450160,-0.865480,
0.392520,-0.882930,
0.330200,-0.889000,
-0.330200,-0.889000,
-0.392520,-0.882930,
-0.450160,-0.865480,
-0.501980,-0.837760,
-0.546890,-0.800890,
-0.583770,-0.755980,
-0.611490,-0.704160,
-0.628940,-0.646520,
-0.635000,-0.584200,
0*%
%ADD16PPAD006*%
%ADD17C,0.203200*%
%TD.AperFunction*%
G36*
X+3650000Y+1920000D02*
X+3680345Y+1929338D01*
X+3650000Y+2027950D01*
X+3619655Y+1929338D01*
X+3650000Y+1920000D01*
G37*
G36*
X+3396000Y+1920000D02*
X+3426345Y+1929338D01*
X+3396000Y+2027950D01*
X+3365655Y+1929338D01*
X+3396000Y+1920000D01*
G37*
G36*
X+1446000Y+3760000D02*
X+1464553Y+3807290D01*
X+1356198Y+3849802D01*
X+1398710Y+3741447D01*
X+1446000Y+3760000D01*
G37*
G36*
X+366660Y+3759355D02*
X+346906Y+3692357D01*
X+469932Y+3656083D01*
X+433658Y+3779109D01*
X+366660Y+3759355D01*
G37*
G36*
X+366660Y+3505355D02*
X+346340Y+3551913D01*
X+239660Y+3505355D01*
X+346340Y+3458797D01*
X+366660Y+3505355D01*
G37*
G36*
X+350000Y+2920000D02*
X+330246Y+2853002D01*
X+453273Y+2816727D01*
X+416998Y+2939754D01*
X+350000Y+2920000D01*
G37*
G36*
X+350000Y+2666000D02*
X+363651Y+2714931D01*
X+251536Y+2746212D01*
X+304840Y+2642737D01*
X+350000Y+2666000D01*
G37*
G36*
X+350000Y+2666000D02*
X+331447Y+2618710D01*
X+439802Y+2576198D01*
X+397290Y+2684553D01*
X+350000Y+2666000D01*
G37*
G36*
X+856000Y+1920000D02*
X+868569Y+1921814D01*
X+856000Y+2008900D01*
X+843431Y+1921814D01*
X+856000Y+1920000D01*
G37*
G36*
X+2160000Y+2784000D02*
X+2193597Y+2722761D01*
X+2306050Y+2784454D01*
X+2193215Y+2845447D01*
X+2160000Y+2784000D01*
G37*
G36*
X+2160000Y+3038000D02*
X+2193406Y+2976657D01*
X+2306050Y+3038000D01*
X+2193406Y+3099343D01*
X+2160000Y+3038000D01*
G37*
G36*
X+2160000Y+3546000D02*
X+2149977Y+3595801D01*
X+2035867Y+3572835D01*
X+2130301Y+3504786D01*
X+2160000Y+3546000D01*
G37*
G36*
X+1700000Y+3760000D02*
X+1638657Y+3726594D01*
X+1700000Y+3613950D01*
X+1761343Y+3726594D01*
X+1700000Y+3760000D01*
G37*
G36*
X+3142000Y+1920000D02*
X+3172345Y+1929338D01*
X+3142000Y+2027950D01*
X+3111655Y+1929338D01*
X+3142000Y+1920000D01*
G37*
G36*
X+3142000Y+1920000D02*
X+3111655Y+1910662D01*
X+3142000Y+1812050D01*
X+3172345Y+1910662D01*
X+3142000Y+1920000D01*
G37*
G36*
X+2888000Y+1920000D02*
X+2918345Y+1929338D01*
X+2888000Y+2027950D01*
X+2857655Y+1929338D01*
X+2888000Y+1920000D01*
G37*
G36*
X+2888000Y+1920000D02*
X+2857833Y+1910102D01*
X+2890000Y+1812069D01*
X+2918513Y+1911226D01*
X+2888000Y+1920000D01*
G37*
G36*
X+2634000Y+1920000D02*
X+2648854Y+1948060D01*
X+2557668Y+1996332D01*
X+2605940Y+1905146D01*
X+2634000Y+1920000D01*
G37*
G36*
X+2634000Y+1920000D02*
X+2603330Y+1911793D01*
X+2630000Y+1812125D01*
X+2663978Y+1909544D01*
X+2634000Y+1920000D01*
G37*
G36*
X+113498Y+3939769D02*
X+113498Y+3994240D01*
X+167969Y+3994240D01*
X+113498Y+3939769D01*
G37*
G36*
X+5445380Y+114718D02*
X+113498Y+114718D01*
X+113498Y+2722608D01*
X+158098Y+2678008D01*
X+184901Y+2625978D01*
X+184901Y+2597614D01*
X+281614Y+2500901D01*
X+318775Y+2500901D01*
X+375850Y+2478508D01*
X+741701Y+2112657D01*
X+741701Y+2072399D01*
X+729001Y+2072399D01*
X+729001Y+1767601D01*
X+982999Y+1767601D01*
X+982999Y+2072399D01*
X+970299Y+2072399D01*
X+970299Y+2164999D01*
X+1170547Y+1964751D01*
X+2454547Y+1964751D01*
X+2480189Y+1939109D01*
X+2507001Y+1888461D01*
X+2507001Y+1767601D01*
X+2534751Y+1767601D01*
X+2534751Y+1724299D01*
X+2503001Y+1724299D01*
X+2503001Y+1495701D01*
X+2756999Y+1495701D01*
X+2756999Y+1724299D01*
X+2725249Y+1724299D01*
X+2725249Y+1767601D01*
X+2760999Y+1767601D01*
X+2760999Y+2047001D01*
X+2761001Y+2046999D01*
X+2761001Y+1767601D01*
X+2794751Y+1767601D01*
X+2794751Y+1724299D01*
X+2763001Y+1724299D01*
X+2763001Y+1495701D01*
X+3266999Y+1495701D01*
X+3266999Y+1724299D01*
X+3237249Y+1724299D01*
X+3237249Y+1767601D01*
X+3268999Y+1767601D01*
X+3268999Y+2072399D01*
X+3237249Y+2072399D01*
X+3237249Y+2094155D01*
X+2960580Y+2370824D01*
X+2325099Y+2370824D01*
X+2325099Y+2686264D01*
X+2330460Y+2689205D01*
X+2803998Y+2689205D01*
X+3300751Y+2192452D01*
X+3300751Y+2072399D01*
X+3269001Y+2072399D01*
X+3269001Y+1767601D01*
X+3522999Y+1767601D01*
X+3522999Y+2072399D01*
X+3491249Y+2072399D01*
X+3491249Y+2271358D01*
X+2882904Y+2879703D01*
X+2330144Y+2879703D01*
X+2325099Y+2882430D01*
X+2325099Y+2939918D01*
X+2330302Y+2942751D01*
X+2912547Y+2942751D01*
X+3554751Y+2300547D01*
X+3554751Y+2072399D01*
X+3523001Y+2072399D01*
X+3523001Y+1767601D01*
X+3776999Y+1767601D01*
X+3776999Y+2072399D01*
X+3745249Y+2072399D01*
X+3745249Y+2379453D01*
X+2991453Y+3133249D01*
X+2330302Y+3133249D01*
X+2325099Y+3136082D01*
X+2325099Y+3203099D01*
X+1994901Y+3203099D01*
X+1994901Y+2469802D01*
X+1795249Y+2669454D01*
X+1795249Y+3589698D01*
X+1817148Y+3629912D01*
X+1994901Y+3452159D01*
X+1994901Y+3380901D01*
X+2325099Y+3380901D01*
X+2325099Y+3965099D01*
X+1994901Y+3965099D01*
X+1994901Y+3903266D01*
X+1903927Y+3994240D01*
X+5445380Y+3994240D01*
X+5445380Y+114718D01*
G37*
%LPC*%
G36*
X+2096500Y+3318303D02*
X+2096500Y+3265697D01*
X+2133697Y+3228500D01*
X+2186303Y+3228500D01*
X+2223500Y+3265697D01*
X+2223500Y+3318303D01*
X+2186303Y+3355500D01*
X+2133697Y+3355500D01*
X+2096500Y+3318303D01*
G37*
G36*
X+3152700Y+1391379D02*
X+3152700Y+1401901D01*
X+3145261Y+1409340D01*
X+3134739Y+1409340D01*
X+3127300Y+1401901D01*
X+3127300Y+1391379D01*
X+3134739Y+1383940D01*
X+3145261Y+1383940D01*
X+3152700Y+1391379D01*
G37*
G36*
X+2902700Y+1391379D02*
X+2902700Y+1401901D01*
X+2895261Y+1409340D01*
X+2884739Y+1409340D01*
X+2877300Y+1401901D01*
X+2877300Y+1391379D01*
X+2884739Y+1383940D01*
X+2895261Y+1383940D01*
X+2902700Y+1391379D01*
G37*
G36*
X+2642700Y+1391379D02*
X+2642700Y+1401901D01*
X+2635261Y+1409340D01*
X+2624739Y+1409340D01*
X+2617300Y+1401901D01*
X+2617300Y+1391379D01*
X+2624739Y+1383940D01*
X+2635261Y+1383940D01*
X+2642700Y+1391379D01*
G37*
G36*
X+468999Y+213601D02*
X+468999Y+518399D01*
X+215001Y+518399D01*
X+215001Y+213601D01*
X+468999Y+213601D01*
G37*
G36*
X+722999Y+213601D02*
X+722999Y+518399D01*
X+469001Y+518399D01*
X+469001Y+213601D01*
X+722999Y+213601D01*
G37*
G36*
X+4958450Y+347588D02*
X+4958450Y+384412D01*
X+4932412Y+410450D01*
X+4895588Y+410450D01*
X+4869550Y+384412D01*
X+4869550Y+347588D01*
X+4895588Y+321550D01*
X+4932412Y+321550D01*
X+4958450Y+347588D01*
G37*
G36*
X+646450Y+1901588D02*
X+646450Y+1938412D01*
X+620412Y+1964450D01*
X+583588Y+1964450D01*
X+557550Y+1938412D01*
X+557550Y+1901588D01*
X+583588Y+1875550D01*
X+620412Y+1875550D01*
X+646450Y+1901588D01*
G37*
G36*
X+392450Y+1901588D02*
X+392450Y+1938412D01*
X+366412Y+1964450D01*
X+329588Y+1964450D01*
X+303550Y+1938412D01*
X+303550Y+1901588D01*
X+329588Y+1875550D01*
X+366412Y+1875550D01*
X+392450Y+1901588D01*
G37*
G36*
X+5294999Y+213601D02*
X+5294999Y+518399D01*
X+5041001Y+518399D01*
X+5041001Y+213601D01*
X+5294999Y+213601D01*
G37*
%LPD*%
G36*
X+1836064Y+2155249D02*
X+1249453Y+2155249D01*
X+537773Y+2866929D01*
X+515099Y+2943829D01*
X+515099Y+2988386D01*
X+418386Y+3085099D01*
X+281614Y+3085099D01*
X+264299Y+3067784D01*
X+264299Y+3369892D01*
X+271998Y+3366532D01*
X+298274Y+3340256D01*
X+435046Y+3340256D01*
X+531759Y+3436969D01*
X+531759Y+3459554D01*
X+1836064Y+2155249D01*
G37*
G36*
X+1258508Y+3785850D02*
X+1280901Y+3728775D01*
X+1280901Y+3691614D01*
X+1377614Y+3594901D01*
X+1514386Y+3594901D01*
X+1571056Y+3651571D01*
X+1604751Y+3589698D01*
X+1604751Y+2655966D01*
X+554433Y+3706284D01*
X+531759Y+3783183D01*
X+531759Y+3827741D01*
X+513799Y+3845701D01*
X+1198657Y+3845701D01*
X+1258508Y+3785850D01*
G37*
G36*
X+2989601Y+2072399D02*
X+2983249Y+2072399D01*
X+2983249Y+2078751D01*
X+2989601Y+2072399D01*
G37*
G36*
X+2735601Y+2072399D02*
X+2617558Y+2072399D01*
X+2614891Y+2073811D01*
X+2609977Y+2078725D01*
X+2729275Y+2078725D01*
X+2735601Y+2072399D01*
G37*
G36*
X+3015001Y+2046999D02*
X+3015001Y+1767601D01*
X+3046751Y+1767601D01*
X+3046751Y+1724299D01*
X+2985249Y+1724299D01*
X+2985249Y+1767601D01*
X+3014999Y+1767601D01*
X+3014999Y+2047001D01*
X+3015001Y+2046999D01*
G37*
D10*
X+366660Y+3505355D02*
X+170355Y+3505355D01*
X+150000Y+3485000D01*
X+350000Y+2666000D02*
X+331748Y+2666000D01*
X+150000Y+2847748D01*
X+150000Y+3485000D01*
X+2160000Y+3546000D02*
X+2062702Y+3546000D01*
X+1894703Y+3713999D01*
X+1894703Y+3841822D01*
X+1776525Y+3960000D01*
X+1246000Y+3960000D01*
X+150000Y+3485000D02*
X+150000Y+3814629D01*
X+295371Y+3960000D01*
X+1246000Y+3960000D01*
X+1446000Y+3760000D01*
D11*
X+2630000Y+1610000D02*
X+2630000Y+1916000D01*
X+2634000Y+1920000D01*
X+2890000Y+1610000D02*
X+2890000Y+1918000D01*
X+2888000Y+1920000D01*
X+3140000Y+1610000D02*
X+3142000Y+1612000D01*
X+3142000Y+1920000D01*
X+3650000Y+1920000D02*
X+3650000Y+2340000D01*
X+2952000Y+3038000D01*
X+2160000Y+3038000D01*
X+3396000Y+1920000D02*
X+3396000Y+2231905D01*
X+3390413Y+2237492D01*
X+2843451Y+2784454D01*
X+2261600Y+2784454D01*
X+2160000Y+2784000D01*
X+2888000Y+1920000D02*
X+2888000Y+2054702D01*
X+2768728Y+2173974D01*
X+1952041Y+2173974D01*
X+366660Y+3759355D01*
X+2634000Y+1920000D02*
X+2494000Y+2060000D01*
X+1210000Y+2060000D01*
X+350000Y+2920000D01*
D10*
X+856000Y+1920000D02*
X+856000Y+2160000D01*
X+350000Y+2666000D01*
D11*
X+3142000Y+1920000D02*
X+3142000Y+2054702D01*
X+2921126Y+2275576D01*
X+2054425Y+2275576D01*
X+1700000Y+2630001D01*
X+1700000Y+3760000D01*
X+3650000Y+1920000D02*
X+3680345Y+1929338D01*
X+3650000Y+2027950D01*
X+3619655Y+1929338D01*
X+3650000Y+1920000D01*
X+3396000Y+1920000D02*
X+3426345Y+1929338D01*
X+3396000Y+2027950D01*
X+3365655Y+1929338D01*
X+3396000Y+1920000D01*
D10*
X+1446000Y+3760000D02*
X+1464553Y+3807290D01*
X+1356198Y+3849802D01*
X+1398710Y+3741447D01*
X+1446000Y+3760000D01*
D11*
X+366660Y+3759355D02*
X+346906Y+3692357D01*
X+469932Y+3656083D01*
X+433658Y+3779109D01*
X+366660Y+3759355D01*
D10*
X+366660Y+3505355D02*
X+346340Y+3551913D01*
X+239660Y+3505355D01*
X+346340Y+3458797D01*
X+366660Y+3505355D01*
D11*
X+350000Y+2920000D02*
X+330246Y+2853002D01*
X+453273Y+2816727D01*
X+416998Y+2939754D01*
X+350000Y+2920000D01*
D10*
X+350000Y+2666000D02*
X+363651Y+2714931D01*
X+251536Y+2746212D01*
X+304840Y+2642737D01*
X+350000Y+2666000D01*
X+331447Y+2618710D01*
X+439802Y+2576198D01*
X+397290Y+2684553D01*
X+350000Y+2666000D01*
X+856000Y+1920000D02*
X+868569Y+1921814D01*
X+856000Y+2008900D01*
X+843431Y+1921814D01*
X+856000Y+1920000D01*
D11*
X+2160000Y+2784000D02*
X+2193597Y+2722761D01*
X+2306050Y+2784454D01*
X+2193215Y+2845447D01*
X+2160000Y+2784000D01*
X+2160000Y+3038000D02*
X+2193406Y+2976657D01*
X+2306050Y+3038000D01*
X+2193406Y+3099343D01*
X+2160000Y+3038000D01*
D10*
X+2160000Y+3546000D02*
X+2149977Y+3595801D01*
X+2035867Y+3572835D01*
X+2130301Y+3504786D01*
X+2160000Y+3546000D01*
D11*
X+1700000Y+3760000D02*
X+1638657Y+3726594D01*
X+1700000Y+3613950D01*
X+1761343Y+3726594D01*
X+1700000Y+3760000D01*
X+3142000Y+1920000D02*
X+3172345Y+1929338D01*
X+3142000Y+2027950D01*
X+3111655Y+1929338D01*
X+3142000Y+1920000D01*
X+3111655Y+1910662D01*
X+3142000Y+1812050D01*
X+3172345Y+1910662D01*
X+3142000Y+1920000D01*
X+2888000Y+1920000D02*
X+2918345Y+1929338D01*
X+2888000Y+2027950D01*
X+2857655Y+1929338D01*
X+2888000Y+1920000D01*
X+2857833Y+1910102D01*
X+2890000Y+1812069D01*
X+2918513Y+1911226D01*
X+2888000Y+1920000D01*
X+2634000Y+1920000D02*
X+2648854Y+1948060D01*
X+2557668Y+1996332D01*
X+2605940Y+1905146D01*
X+2634000Y+1920000D01*
X+2603330Y+1911793D01*
X+2630000Y+1812125D01*
X+2663978Y+1909544D01*
X+2634000Y+1920000D01*
D12*
X+113498Y+3939769D02*
X+113498Y+3994240D01*
X+167969Y+3994240D01*
X+113498Y+3939769D01*
X+5445380Y+114718D02*
X+113498Y+114718D01*
X+113498Y+2722608D01*
X+158098Y+2678008D01*
X+184901Y+2625978D01*
X+184901Y+2597614D01*
X+281614Y+2500901D01*
X+318775Y+2500901D01*
X+375850Y+2478508D01*
X+741701Y+2112657D01*
X+741701Y+2072399D01*
X+729001Y+2072399D01*
X+729001Y+1767601D01*
X+982999Y+1767601D01*
X+982999Y+2072399D01*
X+970299Y+2072399D01*
X+970299Y+2164999D01*
X+1170547Y+1964751D01*
X+2454547Y+1964751D01*
X+2480189Y+1939109D01*
X+2507001Y+1888461D01*
X+2507001Y+1767601D01*
X+2534751Y+1767601D01*
X+2534751Y+1724299D01*
X+2503001Y+1724299D01*
X+2503001Y+1495701D01*
X+2756999Y+1495701D01*
X+2756999Y+1724299D01*
X+2725249Y+1724299D01*
X+2725249Y+1767601D01*
X+2760999Y+1767601D01*
X+2760999Y+2047001D01*
X+2761001Y+2046999D01*
X+2761001Y+1767601D01*
X+2794751Y+1767601D01*
X+2794751Y+1724299D01*
X+2763001Y+1724299D01*
X+2763001Y+1495701D01*
X+3266999Y+1495701D01*
X+3266999Y+1724299D01*
X+3237249Y+1724299D01*
X+3237249Y+1767601D01*
X+3268999Y+1767601D01*
X+3268999Y+2072399D01*
X+3237249Y+2072399D01*
X+3237249Y+2094155D01*
X+2960580Y+2370824D01*
X+2325099Y+2370824D01*
X+2325099Y+2686264D01*
X+2330460Y+2689205D01*
X+2803998Y+2689205D01*
X+3300751Y+2192452D01*
X+3300751Y+2072399D01*
X+3269001Y+2072399D01*
X+3269001Y+1767601D01*
X+3522999Y+1767601D01*
X+3522999Y+2072399D01*
X+3491249Y+2072399D01*
X+3491249Y+2271358D01*
X+2882904Y+2879703D01*
X+2330144Y+2879703D01*
X+2325099Y+2882430D01*
X+2325099Y+2939918D01*
X+2330302Y+2942751D01*
X+2912547Y+2942751D01*
X+3554751Y+2300547D01*
X+3554751Y+2072399D01*
X+3523001Y+2072399D01*
X+3523001Y+1767601D01*
X+3776999Y+1767601D01*
X+3776999Y+2072399D01*
X+3745249Y+2072399D01*
X+3745249Y+2379453D01*
X+2991453Y+3133249D01*
X+2330302Y+3133249D01*
X+2325099Y+3136082D01*
X+2325099Y+3203099D01*
X+1994901Y+3203099D01*
X+1994901Y+2469802D01*
X+1795249Y+2669454D01*
X+1795249Y+3589698D01*
X+1817148Y+3629912D01*
X+1994901Y+3452159D01*
X+1994901Y+3380901D01*
X+2325099Y+3380901D01*
X+2325099Y+3965099D01*
X+1994901Y+3965099D01*
X+1994901Y+3903266D01*
X+1903927Y+3994240D01*
X+5445380Y+3994240D01*
X+5445380Y+114718D01*
X+2096500Y+3318303D02*
X+2096500Y+3265697D01*
X+2133697Y+3228500D01*
X+2186303Y+3228500D01*
X+2223500Y+3265697D01*
X+2223500Y+3318303D01*
X+2186303Y+3355500D01*
X+2133697Y+3355500D01*
X+2096500Y+3318303D01*
X+3152700Y+1391379D02*
X+3152700Y+1401901D01*
X+3145261Y+1409340D01*
X+3134739Y+1409340D01*
X+3127300Y+1401901D01*
X+3127300Y+1391379D01*
X+3134739Y+1383940D01*
X+3145261Y+1383940D01*
X+3152700Y+1391379D01*
X+2902700Y+1391379D02*
X+2902700Y+1401901D01*
X+2895261Y+1409340D01*
X+2884739Y+1409340D01*
X+2877300Y+1401901D01*
X+2877300Y+1391379D01*
X+2884739Y+1383940D01*
X+2895261Y+1383940D01*
X+2902700Y+1391379D01*
X+2642700Y+1391379D02*
X+2642700Y+1401901D01*
X+2635261Y+1409340D01*
X+2624739Y+1409340D01*
X+2617300Y+1401901D01*
X+2617300Y+1391379D01*
X+2624739Y+1383940D01*
X+2635261Y+1383940D01*
X+2642700Y+1391379D01*
X+468999Y+213601D02*
X+468999Y+518399D01*
X+215001Y+518399D01*
X+215001Y+213601D01*
X+468999Y+213601D01*
X+722999Y+213601D02*
X+722999Y+518399D01*
X+469001Y+518399D01*
X+469001Y+213601D01*
X+722999Y+213601D01*
X+4958450Y+347588D02*
X+4958450Y+384412D01*
X+4932412Y+410450D01*
X+4895588Y+410450D01*
X+4869550Y+384412D01*
X+4869550Y+347588D01*
X+4895588Y+321550D01*
X+4932412Y+321550D01*
X+4958450Y+347588D01*
X+646450Y+1901588D02*
X+646450Y+1938412D01*
X+620412Y+1964450D01*
X+583588Y+1964450D01*
X+557550Y+1938412D01*
X+557550Y+1901588D01*
X+583588Y+1875550D01*
X+620412Y+1875550D01*
X+646450Y+1901588D01*
X+392450Y+1901588D02*
X+392450Y+1938412D01*
X+366412Y+1964450D01*
X+329588Y+1964450D01*
X+303550Y+1938412D01*
X+303550Y+1901588D01*
X+329588Y+1875550D01*
X+366412Y+1875550D01*
X+392450Y+1901588D01*
X+5294999Y+213601D02*
X+5294999Y+518399D01*
X+5041001Y+518399D01*
X+5041001Y+213601D01*
X+5294999Y+213601D01*
X+1836064Y+2155249D02*
X+1249453Y+2155249D01*
X+537773Y+2866929D01*
X+515099Y+2943829D01*
X+515099Y+2988386D01*
X+418386Y+3085099D01*
X+281614Y+3085099D01*
X+264299Y+3067784D01*
X+264299Y+3369892D01*
X+271998Y+3366532D01*
X+298274Y+3340256D01*
X+435046Y+3340256D01*
X+531759Y+3436969D01*
X+531759Y+3459554D01*
X+1836064Y+2155249D01*
X+1258508Y+3785850D02*
X+1280901Y+3728775D01*
X+1280901Y+3691614D01*
X+1377614Y+3594901D01*
X+1514386Y+3594901D01*
X+1571056Y+3651571D01*
X+1604751Y+3589698D01*
X+1604751Y+2655966D01*
X+554433Y+3706284D01*
X+531759Y+3783183D01*
X+531759Y+3827741D01*
X+513799Y+3845701D01*
X+1198657Y+3845701D01*
X+1258508Y+3785850D01*
X+2989601Y+2072399D02*
X+2983249Y+2072399D01*
X+2983249Y+2078751D01*
X+2989601Y+2072399D01*
X+2735601Y+2072399D02*
X+2617558Y+2072399D01*
X+2614891Y+2073811D01*
X+2609977Y+2078725D01*
X+2729275Y+2078725D01*
X+2735601Y+2072399D01*
X+3015001Y+2046999D02*
X+3015001Y+1767601D01*
X+3046751Y+1767601D01*
X+3046751Y+1724299D01*
X+2985249Y+1724299D01*
X+2985249Y+1767601D01*
X+3014999Y+1767601D01*
X+3014999Y+2047001D01*
X+3015001Y+2046999D01*
X+2160000Y+3355500D02*
X+2160000Y+3292000D01*
X+2160000Y+3228500D02*
X+2160000Y+3292000D01*
X+2096500Y+3292000D02*
X+2160000Y+3292000D01*
X+2223500Y+3292000D02*
X+2160000Y+3292000D01*
X+3140000Y+1383940D02*
X+3140000Y+1396640D01*
X+3140000Y+1409340D02*
X+3140000Y+1396640D01*
X+3152700Y+1396640D02*
X+3140000Y+1396640D01*
X+3127300Y+1396640D02*
X+3140000Y+1396640D01*
X+2890000Y+1383940D02*
X+2890000Y+1396640D01*
X+2890000Y+1409340D02*
X+2890000Y+1396640D01*
X+2902700Y+1396640D02*
X+2890000Y+1396640D01*
X+2877300Y+1396640D02*
X+2890000Y+1396640D01*
X+2630000Y+1383940D02*
X+2630000Y+1396640D01*
X+2630000Y+1409340D02*
X+2630000Y+1396640D01*
X+2642700Y+1396640D02*
X+2630000Y+1396640D01*
X+2617300Y+1396640D02*
X+2630000Y+1396640D01*
X+4914000Y+321550D02*
X+4914000Y+366000D01*
X+4914000Y+410450D02*
X+4914000Y+366000D01*
X+4958450Y+366000D02*
X+4914000Y+366000D01*
X+4869550Y+366000D02*
X+4914000Y+366000D01*
X+602000Y+1875550D02*
X+602000Y+1920000D01*
X+602000Y+1964450D02*
X+602000Y+1920000D01*
X+646450Y+1920000D02*
X+602000Y+1920000D01*
X+557550Y+1920000D02*
X+602000Y+1920000D01*
X+348000Y+1875550D02*
X+348000Y+1920000D01*
X+348000Y+1964450D02*
X+348000Y+1920000D01*
X+392450Y+1920000D02*
X+348000Y+1920000D01*
X+303550Y+1920000D02*
X+348000Y+1920000D01*
D13*
X+2160000Y+3292000D03*
X+2160000Y+3800000D03*
X+2160000Y+2530000D03*
X+2160000Y+2784000D03*
X+2160000Y+3038000D03*
X+2160000Y+3546000D03*
D14*
X+1700000Y+3760000D03*
X+1446000Y+3760000D03*
X+366660Y+3759355D03*
X+366660Y+3505355D03*
X+350000Y+2920000D03*
X+350000Y+2666000D03*
D15*
X+3140000Y+1610000D03*
X+3140000Y+1396640D03*
X+2890000Y+1610000D03*
X+2890000Y+1396640D03*
X+2630000Y+1610000D03*
X+2630000Y+1396640D03*
D16*
X+3650000Y+1920000D03*
X+3396000Y+1920000D03*
X+3142000Y+1920000D03*
X+2888000Y+1920000D03*
X+2634000Y+1920000D03*
X+342000Y+366000D03*
X+596000Y+366000D03*
X+4914000Y+366000D03*
X+602000Y+1920000D03*
X+348000Y+1920000D03*
X+856000Y+1920000D03*
X+5168000Y+366000D03*
D17*
X+39839Y+41059D02*
X+5519039Y+41059D01*
X+5519039Y+4067899D01*
X+39839Y+4067899D01*
X+39839Y+41059D01*
M02*
