M48
METRIC,TZ
T01C1.0160
T02C0.6350
%
T01
X+21600Y+32920
X+21600Y+38000
X+21600Y+25300
X+21600Y+27840
X+21600Y+30380
X+21600Y+35460
X+17000Y+37600
X+14460Y+37600
X+3667Y+37594
X+3667Y+35054
X+3500Y+29200
X+3500Y+26660
T02
X+36500Y+19200
X+33960Y+19200
X+31420Y+19200
X+28880Y+19200
X+26340Y+19200
X+3420Y+3660
X+5960Y+3660
X+49140Y+3660
X+6020Y+19200
X+3480Y+19200
X+8560Y+19200
X+51680Y+3660
M30
